# xmcd
#
# Track frame offsets:
#	150
#	14602
#	27912
#	38212
#	53502
#	64280
#	79340
#	95007
#	108310
#	121957
#	136165
#	147715
#	162992
#	183630
#
# Disc length: 2649 seconds
#
# Revision: 0
# Processed by: cddbd v1.4PL0 Copyright (c) Steve Scherf et al.
# Submitted via: dBpowerAMP V4.0
#
DISCID=c80a570e
DTITLE=Tina Turner - Dues Paid Vol.1
DYEAR=1999
DGENRE=Global Dance
TTITLE0=You Took A Trip
TTITLE1=Put Some Time Into It
TTITLE2=I had a Notion
TTITLE3=Lean On Me
TTITLE4=Play With Me
TTITLE5=Pick Me Up/Ike Turner
TTITLE6=Never Been To Spain
TTITLE7=Stormy Weather
TTITLE8=Trying tTo Find My Mind
TTITLE9=It's Too Late
TTITLE10=Whats On A Woman's Mind/Ike Turner
TTITLE11=Woke Up This Morning
TTITLE12=I Don't Want Nobody/Ike Turner
TTITLE13=Why I Sing The Blues
EXTD=Submitted by William Hale
EXTT0=
EXTT1=
EXTT2=
EXTT3=
EXTT4=
EXTT5=
EXTT6=
EXTT7=
EXTT8=
EXTT9=
EXTT10=
EXTT11=
EXTT12=
EXTT13=
PLAYORDER=
